<svg width="66" height="55" viewBox="0 0 66 55" fill="none" xmlns="http://www.w3.org/2000/svg">
<path d="M30.6738 37.7285C30.6738 43.0215 29.3164 47.1523 26.6016 50.1211C23.8867 53.0898 20.1074 54.5742 15.2637 54.5742C12.2363 54.5742 9.56055 53.8906 7.23633 52.5234C4.91211 51.1562 3.125 49.1934 1.875 46.6348C0.625 44.0762 0 41.1074 0 37.7285C0 32.4746 1.34766 28.373 4.04297 25.4238C6.73828 22.4746 10.5371 21 15.4395 21C20.127 21 23.8379 22.5137 26.5723 25.541C29.3066 28.5488 30.6738 32.6113 30.6738 37.7285ZM7.08984 37.7285C7.08984 45.209 9.85352 48.9492 15.3809 48.9492C20.8496 48.9492 23.584 45.209 23.584 37.7285C23.584 30.3262 20.8301 26.625 15.3223 26.625C12.4316 26.625 10.332 27.582 9.02344 29.4961C7.73438 31.4102 7.08984 34.1543 7.08984 37.7285Z" fill="black"/>
<path d="M65.5535 37.7285C65.5535 43.0215 64.1961 47.1523 61.4813 50.1211C58.7664 53.0898 54.9871 54.5742 50.1434 54.5742C47.116 54.5742 44.4402 53.8906 42.116 52.5234C39.7918 51.1562 38.0047 49.1934 36.7547 46.6348C35.5047 44.0762 34.8797 41.1074 34.8797 37.7285C34.8797 32.4746 36.2274 28.373 38.9227 25.4238C41.618 22.4746 45.4168 21 50.3192 21C55.0067 21 58.7176 22.5137 61.452 25.541C64.1863 28.5488 65.5535 32.6113 65.5535 37.7285ZM41.9695 37.7285C41.9695 45.209 44.7332 48.9492 50.2606 48.9492C55.7293 48.9492 58.4637 45.209 58.4637 37.7285C58.4637 30.3262 55.7098 26.625 50.202 26.625C47.3113 26.625 45.2117 27.582 43.9031 29.4961C42.6141 31.4102 41.9695 34.1543 41.9695 37.7285Z" fill="black"/>
<path d="M14.2656 34.0078C14.2656 32.7773 14.5977 31.8301 15.2617 31.166C15.9453 30.502 16.9121 30.1699 18.1621 30.1699C19.373 30.1699 20.3105 30.502 20.9746 31.166C21.6582 31.8301 22 32.7773 22 34.0078C22 35.1797 21.6582 36.1074 20.9746 36.791C20.3105 37.4551 19.373 37.7871 18.1621 37.7871C16.9121 37.7871 15.9453 37.4551 15.2617 36.791C14.5977 36.1074 14.2656 35.1797 14.2656 34.0078Z" fill="black"/>
<path d="M43.7656 34.0078C43.7656 32.7773 44.0977 31.8301 44.7617 31.166C45.4453 30.502 46.4121 30.1699 47.6621 30.1699C48.873 30.1699 49.8105 30.502 50.4746 31.166C51.1582 31.8301 51.5 32.7773 51.5 34.0078C51.5 35.1797 51.1582 36.1074 50.4746 36.791C49.8105 37.4551 48.873 37.7871 47.6621 37.7871C46.4121 37.7871 45.4453 37.4551 44.7617 36.791C44.0977 36.1074 43.7656 35.1797 43.7656 34.0078Z" fill="black"/>
<path d="M2.37964 30.074L12 11C22 4.99998 30.5 11.0001 30.5 15L29.5751 40.025" stroke="black" stroke-width="2"/>
<path d="M15 9.5L18 3.50005C22 -1 29 2.49619 29 4.85384L28.5 11.5" stroke="black" stroke-width="2"/>
<path d="M62.7637 29.1694L53.5 11C43.5 4.99998 35 11.0001 35 15L36.0771 40.2511" stroke="black" stroke-width="2"/>
<path d="M50.5 9.5L47.5 3.50005C43.5 -1 36.5 2.49619 36.5 4.85384L37 11.5" stroke="black" stroke-width="2"/>
<path d="M30.5532 24.9807C31.2468 24.6722 32.0903 24.4913 33 24.4913C33.9097 24.4913 34.7532 24.6722 35.4468 24.9807" stroke="black" stroke-width="2"/>
<path d="M30.5532 27.473C31.2468 27.1645 32.0903 26.9836 33 26.9836C33.9097 26.9836 34.7532 27.1645 35.4468 27.473" stroke="black" stroke-width="2"/>
<path d="M30.5532 20.1159C31.2468 19.8075 32.0903 19.6266 33 19.6266C33.9097 19.6266 34.7532 19.8075 35.4468 20.1159" stroke="black" stroke-width="2"/>
</svg>
